<svg width="550" height="56" viewBox="0 0 550 56" fill="none" xmlns="http://www.w3.org/2000/svg">
<path d="M286.134 25.9425C286.319 26.1214 286.319 26.3003 286.134 26.4792L271.103 46.3387C270.918 46.5176 270.732 46.6965 270.547 46.5176L269.619 45.8019C269.433 45.623 269.433 45.4441 269.619 45.2652L284.464 25.5847C284.649 25.2268 284.835 25.2268 285.02 25.2268L286.134 25.9425Z" fill="black"/>
<path d="M12.6181 45.623C12.0614 45.623 11.8758 45.623 11.8758 44.5495C11.8758 43.8339 12.0614 43.476 12.6181 43.476L13.5459 43.2971C14.2881 43.1182 14.4737 42.9393 14.4737 41.508L14.6592 33.278C14.6592 28.2684 14.4737 27.7316 12.8036 27.016C12.0614 26.8371 11.8758 26.6582 11.8758 26.3003C11.8758 25.7636 12.247 25.5847 13.1748 25.2268C14.1026 24.869 15.4015 24.3323 15.9582 23.9744C17.4426 23.4377 18.1849 22.901 18.7416 22.901C19.2982 23.0799 19.6694 23.4377 19.6694 24.5112V27.5527C20.4116 26.1214 21.3394 25.2268 22.8239 24.3323C23.9372 23.7955 25.4217 23.4377 26.9062 23.4377C30.2463 23.4377 32.473 25.2268 33.2152 27.9105H33.4008C34.143 26.4792 35.0708 25.2268 36.7409 24.3323C37.8542 23.7955 39.5243 23.4377 41.0088 23.4377C44.5344 23.4377 46.5756 24.869 47.3178 27.7316C47.6889 29.5208 47.6889 31.3099 47.6889 34.3514V41.6869C47.6889 42.9393 47.8745 43.2971 48.8023 43.2971L49.7301 43.476C50.4723 43.476 50.4723 43.655 50.4723 44.5495C50.4723 45.4441 50.2868 45.623 49.7301 45.623C48.2456 45.4441 46.7611 45.4441 45.4622 45.4441C44.1633 45.4441 41.751 45.623 40.2665 45.623C39.7098 45.623 39.5243 45.4441 39.5243 44.5495C39.5243 43.655 39.7098 43.476 40.4521 43.476L41.751 43.2971C42.4932 43.2971 42.6788 42.9393 42.6788 41.6869V35.246C42.6788 32.3834 42.6788 30.5943 42.1221 29.1629C41.5654 27.5527 40.2665 26.6582 38.5965 26.6582C36.5553 26.6582 33.9575 28.0895 33.9575 33.099V41.6869C33.9575 42.9393 34.143 43.2971 35.0708 43.2971L35.6275 43.476C36.3698 43.655 36.3698 43.655 36.3698 44.5495C36.3698 45.4441 36.1842 45.623 35.6275 45.623C34.143 45.4441 32.6586 45.4441 31.3596 45.4441C30.0607 45.4441 27.834 45.623 26.5351 45.623C25.9784 45.623 25.6073 45.4441 25.6073 44.5495C25.6073 43.655 25.7928 43.476 26.5351 43.476L27.6484 43.2971C28.2051 43.2971 28.5762 42.9393 28.5762 41.6869V35.246C28.5762 32.3834 28.5762 30.5943 28.0196 29.1629C27.2773 27.5527 26.164 26.6582 24.4939 26.6582C22.4528 26.6582 19.8549 28.0895 19.8549 33.099L20.0405 41.508C20.0405 42.7604 20.0405 43.1182 20.7827 43.2971L21.525 43.476C22.2672 43.8339 22.2672 44.0128 22.2672 44.7284C22.2672 45.623 22.0816 45.9808 21.525 45.8019C20.0405 45.623 19.2982 45.623 17.4426 45.623C15.587 45.4441 14.1026 45.623 12.6181 45.623Z" fill="black"/>
<path d="M77.3785 41.8658C77.3785 37.7508 81.6464 35.7828 89.2544 33.6358C89.2544 32.0256 89.4399 30.7732 89.4399 30.0575C89.4399 26.4792 88.141 26.1214 86.471 26.1214C84.2443 26.1214 83.6876 27.1949 82.9453 29.3419C82.5742 30.9521 81.2753 31.8466 79.9764 31.8466C78.6775 31.8466 77.7497 30.9521 77.7497 29.6997C77.7497 28.984 77.9352 28.2684 78.863 27.3738C79.9764 26.3003 83.6876 23.7955 88.3266 23.7955C92.5945 23.7955 94.2645 25.5847 94.2645 29.8786C94.2645 31.8467 94.0789 34.7093 94.0789 38.2875C94.0789 41.3291 94.2645 43.1182 95.5634 43.1182C96.3057 43.1182 96.4912 42.9393 97.0479 42.4026C97.2335 42.2236 97.419 42.2236 97.6046 42.2236C97.9757 42.2236 98.3468 42.5815 98.3468 43.1182C98.3468 43.2971 98.1613 43.655 98.1613 43.8339C97.419 44.7284 95.3779 46.8754 93.3367 46.8754C91.6667 46.8754 90.3677 46.1597 89.6255 43.655C87.9555 45.4441 85.3576 46.8754 82.3887 46.8754C78.863 46.3387 77.3785 44.3706 77.3785 41.8658ZM84.9865 43.1182C86.471 43.1182 88.141 41.8658 89.2544 40.9713C89.0688 39.361 89.0688 38.1086 89.0688 37.2141C89.0688 36.4984 89.0688 35.9617 89.0688 35.0671C84.2443 36.8562 82.2031 37.7508 82.2031 40.4345C82.3887 42.5815 83.8731 43.1182 84.9865 43.1182Z" fill="black"/>
<path d="M127.665 45.623C127.109 45.623 126.923 45.4441 126.923 44.5495C126.923 43.655 127.109 43.476 127.851 43.476L129.335 43.2971C130.263 43.2971 130.263 42.7604 130.263 41.8658L130.449 33.099C130.449 28.4473 130.263 28.2684 128.593 27.5527C127.851 27.3738 127.665 27.1949 127.665 26.6582C127.665 26.1214 127.851 25.9425 128.964 25.5847C129.892 25.2268 130.634 24.869 131.377 24.5112C132.49 23.9744 133.974 22.901 134.717 22.901C135.273 22.901 135.644 23.2588 135.644 24.3323C135.644 25.0479 135.644 26.3003 135.644 27.7316H135.83C137.871 24.1534 139.727 23.4377 141.768 23.4377C143.623 23.4377 145.108 24.1534 145.108 25.5847C145.108 27.016 144.366 28.6262 142.696 28.6262C141.953 28.6262 141.397 28.4473 140.655 28.0895C140.283 27.9105 139.727 27.5527 138.799 27.5527C137.129 27.5527 135.644 29.8786 135.644 33.099V41.8658C135.644 42.9393 135.644 43.2971 137.129 43.2971L138.428 43.476C139.17 43.476 139.356 43.8339 139.356 44.5495C139.356 45.4441 139.17 45.623 138.613 45.623C137.314 45.4441 134.717 45.4441 133.418 45.4441C131.748 45.4441 129.15 45.623 127.665 45.623Z" fill="black"/>
<path d="M176.468 40.2556L176.653 27.1949H174.798C174.055 27.1949 173.499 27.016 173.499 26.3003C173.499 25.7636 174.241 25.0479 175.169 24.1534C176.468 22.901 177.024 22.3642 179.993 18.607C180.364 18.2492 180.735 17.8914 181.292 17.8914C181.663 17.8914 182.034 18.0703 182.034 18.607V24.1534C183.519 24.1534 186.673 23.9744 188.343 23.9744C189.086 23.9744 189.271 24.5112 188.9 25.2268L188.158 26.8371C187.972 27.1949 187.787 27.3738 187.23 27.3738H181.663V37.7508C181.663 41.8658 181.663 43.655 184.632 43.655C186.117 43.655 187.045 42.7604 187.787 42.7604C188.343 42.7604 188.529 43.1182 188.529 43.655C188.529 44.0128 188.158 44.3706 187.787 44.7284C186.859 45.4441 184.818 46.3387 182.406 46.3387C179.622 46.3387 176.282 44.9073 176.468 40.2556Z" fill="black"/>
<path d="M217.662 41.8658C217.662 37.7508 221.93 35.7828 229.538 33.6358C229.538 32.0256 229.723 30.7732 229.723 30.0575C229.723 26.4792 228.424 26.1214 226.754 26.1214C224.528 26.1214 223.971 27.1949 223.229 29.3419C222.858 30.9521 221.559 31.8466 220.26 31.8466C218.961 31.8466 218.033 30.9521 218.033 29.6997C218.033 28.984 218.219 28.2684 219.146 27.3738C220.26 26.3003 223.971 23.7955 228.61 23.7955C232.878 23.7955 234.548 25.5847 234.548 29.8786C234.548 31.8467 234.362 34.7093 234.362 38.2875C234.362 41.3291 234.548 43.1182 235.847 43.1182C236.589 43.1182 236.775 42.9393 237.331 42.4026C237.517 42.2236 237.702 42.2236 237.888 42.2236C238.259 42.2236 238.63 42.5815 238.63 43.1182C238.63 43.2971 238.445 43.655 238.445 43.8339C237.702 44.7284 235.661 46.8754 233.62 46.8754C231.95 46.8754 230.651 46.1597 229.909 43.655C228.239 45.4441 225.641 46.8754 222.672 46.8754C219.146 46.3387 217.662 44.3706 217.662 41.8658ZM225.27 43.1182C226.754 43.1182 228.424 41.8658 229.538 40.9713C229.352 39.361 229.352 38.1086 229.352 37.2141C229.352 36.4984 229.352 35.9617 229.352 35.0671C224.528 36.8562 222.486 37.7508 222.486 40.4345C222.672 42.5815 224.157 43.1182 225.27 43.1182Z" fill="black"/>
<path d="M323.988 43.655C322.689 45.2652 321.947 45.8019 321.39 45.8019C320.833 45.8019 320.462 45.623 320.462 44.3706C320.462 41.508 320.648 34.7093 320.648 31.131V18.0703C320.648 14.492 320.648 14.3131 318.978 13.5974C317.679 13.0607 317.122 12.8818 317.122 12.3451C317.122 11.6294 317.864 11.4505 318.421 11.2716C320.091 10.7348 321.576 10.377 323.617 9.48243C323.988 9.30352 324.545 9.1246 324.916 9.1246C325.472 9.1246 325.843 9.30352 325.843 10.1981C325.843 11.9872 325.472 13.5974 325.472 25.4058C327.142 23.9744 329.369 23.4377 331.596 23.4377C337.348 23.4377 342.173 27.7316 342.173 34.1725C342.173 42.4026 335.678 46.3387 330.482 46.3387C328.441 46.3387 325.843 46.1597 323.988 43.655ZM329.74 26.1214C327.699 26.1214 325.287 27.3738 325.287 29.1629V38.4665C325.287 42.2236 327.514 44.0128 330.297 44.0128C334.379 44.0128 336.606 40.6134 336.606 36.4984C336.606 28.984 333.08 26.1214 329.74 26.1214Z" fill="black"/>
<path d="M371.491 35.0671C371.491 29.3419 375.388 23.6166 382.81 23.6166C388.748 23.6166 392.088 28.6262 392.088 32.2045C392.088 33.099 391.532 33.4569 390.604 33.4569H377.058C377.058 40.0767 380.769 43.2971 383.924 43.2971C386.336 43.2971 388.192 42.2236 389.862 40.7923C390.604 40.2556 390.975 39.7189 391.532 39.7189C392.088 39.7189 392.46 40.0767 392.46 40.6134C392.46 41.3291 391.903 42.0447 391.346 42.7604C390.047 44.1917 387.449 46.5176 382.81 46.5176C375.388 46.3387 371.491 41.3291 371.491 35.0671ZM385.408 30.9521C386.15 30.9521 386.336 30.7732 386.336 29.8786C386.336 28.0895 384.852 25.7636 381.883 25.7636C379.285 25.7636 377.244 27.9105 377.058 31.3099L385.408 30.9521Z" fill="black"/>
<path d="M421.778 45.623C421.221 45.623 421.036 45.623 421.036 44.5495C421.036 43.8339 421.407 43.476 421.778 43.476L422.52 43.2971C423.262 43.1182 423.448 42.9393 423.448 41.508L423.634 33.278C423.634 28.4473 423.634 27.7316 421.592 27.016C421.036 26.8371 420.85 26.6582 420.85 26.3003C420.85 25.7636 421.407 25.5847 422.335 25.2268C423.263 24.869 424.561 24.1534 425.118 23.9744C426.603 23.2588 426.974 22.901 427.53 22.901C428.273 22.901 428.458 23.2588 428.458 24.3323V27.1949C429.2 25.7636 430.314 24.869 431.798 24.1534C432.912 23.6166 434.396 23.2588 435.881 23.2588C439.035 23.2588 441.447 25.0479 442.19 27.7316C442.561 29.5208 442.746 31.131 442.746 34.1725V41.508C442.746 42.7604 442.932 43.1182 443.674 43.1182L444.602 43.2971C445.344 43.2971 445.53 43.476 445.53 44.3706C445.53 45.2652 445.344 45.4441 444.602 45.4441C443.117 45.2652 441.633 45.2652 440.334 45.2652C439.035 45.2652 436.994 45.4441 435.509 45.4441C434.953 45.4441 434.582 45.2652 434.582 44.3706C434.582 43.476 434.953 43.2971 435.509 43.2971L436.623 43.1182C437.551 42.9393 437.551 42.7604 437.551 41.508V35.0671C437.551 32.2045 437.551 30.4153 436.994 28.984C436.437 27.3738 434.953 26.4792 433.283 26.4792C431.242 26.4792 428.458 27.9105 428.644 32.9201L428.829 41.3291C428.829 42.5815 428.829 42.9393 429.572 43.1182L430.314 43.2971C431.056 43.476 431.056 43.655 431.056 44.3706C431.056 45.2652 430.87 45.623 430.314 45.4441C428.829 45.2652 428.273 45.2652 426.231 45.2652C424.376 45.4441 423.263 45.623 421.778 45.623Z" fill="black"/>
<path d="M473.549 35.0671C473.549 29.3419 477.446 23.6166 484.868 23.6166C490.806 23.6166 494.146 28.6262 494.146 32.2045C494.146 33.099 493.59 33.4569 492.662 33.4569H479.116C479.116 40.0767 482.827 43.2971 485.982 43.2971C488.394 43.2971 490.25 42.2236 491.92 40.7923C492.662 40.2556 493.033 39.7189 493.59 39.7189C494.146 39.7189 494.518 40.0767 494.518 40.6134C494.518 41.3291 493.961 42.0447 493.404 42.7604C492.105 44.1917 489.507 46.5176 484.868 46.5176C477.446 46.3387 473.549 41.3291 473.549 35.0671ZM487.652 30.9521C488.394 30.9521 488.58 30.7732 488.58 29.8786C488.58 28.0895 487.095 25.7636 484.126 25.7636C481.528 25.7636 479.487 27.9105 479.302 31.3099L487.652 30.9521Z" fill="black"/>
<path d="M525.506 40.2556L525.692 27.1949H523.836C523.094 27.1949 522.537 27.016 522.537 26.3003C522.537 25.7636 523.279 25.0479 524.207 24.1534C525.506 22.901 526.063 22.3642 529.032 18.607C529.403 18.2492 529.774 17.8914 530.331 17.8914C530.702 17.8914 531.073 18.0703 531.073 18.607V24.1534C532.557 24.1534 535.712 23.9744 537.382 23.9744C538.124 23.9744 538.31 24.5112 537.939 25.2268L537.011 26.8371C536.825 27.1949 536.64 27.3738 536.083 27.3738H530.516V37.7508C530.516 41.8658 530.516 43.655 533.485 43.655C534.97 43.655 535.898 42.7604 536.64 42.7604C537.196 42.7604 537.382 43.1182 537.382 43.655C537.382 44.0128 537.196 44.3706 536.64 44.7284C535.712 45.4441 533.671 46.3387 531.258 46.3387C528.661 46.3387 525.321 44.9073 525.506 40.2556Z" fill="black"/>
</svg>
